# xmcd
#
# Track frame offsets: 
#        150
#        15950
#        41172
#        63049
#        81414
#        96924
#        114149
#        134068
#        154931
#        175824
#        192259
#        210326
#        228426
#        244490
#
# Disc length: 3509 seconds
#
# Revision: 3
# Processed by: cddbd v1.5.2PL0 Copyright (c) Steve Scherf et al.
# Submitted via: ExactAudioCopyFreeDBPlugin 1.0
#
DISCID=b70db30e
DTITLE=Sara Evans - Greatest Hits
DYEAR=2007
DGENRE=Country
TTITLE0=As If
TTITLE1=Born To Fly
TTITLE2=I Could Not Ask For More
TTITLE3=Perfect
TTITLE4=Cheatin'
TTITLE5=Suds In The Bucket
TTITLE6=Saints and Angels
TTITLE7=You'll Always Be My Baby
TTITLE8=I Keep Looking
TTITLE9=No Place That Far
TTITLE10=A Real Fine Place To Start
TTITLE11=Love You With All My Heart
TTITLE12=Pray For You
TTITLE13=Some Things Never Change
EXTD=
EXTT0=
EXTT1=
EXTT2=
EXTT3=
EXTT4=
EXTT5=
EXTT6=
EXTT7=
EXTT8=
EXTT9=
EXTT10=
EXTT11=
EXTT12=
EXTT13=
PLAYORDER=
